<?xml version="1.0" encoding="utf-8"?>
<svg version="1.1" xmlns="http://www.w3.org/2000/svg" x="0px" y="0px"
     viewBox="0 0 934.9 309.3" style="enable-background:new 0 0 934.9 309.3;" xml:space="preserve">
    <path fill="#088A97" d="M643.2,309.3h229.6c34.2,0,62-27.8,62-62V0H705.2c-34.2,0-62,27.8-62,62V309.3z"/>
    <g fill="#282829">
        <path d="M264.2,147.1l-44.4,84.8l-44.4-84.8h-18.8l52.8,102.1c1.2,1.8,2.6,3.3,4.1,4.3c1.6,1.1,4,1.6,6.2,1.6h0l0,0
				c2.2,0,4.7-0.6,6.3-1.6c1.6-1,3-2.5,4.1-4.3L283,147.1H264.2z"/>
        <path d="M0,147.1h11.5c3,0,5.4,2.3,5.4,5V255H5.4c-3,0-5.4-2.3-5.4-5V147.1z"/>
        <path d="M57.8,173.5V250c0,2.8-2.4,5-5.4,5H40.9v-96.9c0-3.4,0.9-6.1,2.8-8.1c1.8-2,4.3-3,7.5-3
				c1.5,0,2.9,0.3,4.3,0.9c1.4,0.6,2.8,1.6,4.3,2.9l68.5,76.3v-79.9h11.5c3,0,5.4,2.3,5.4,5v91.7c0,3.5-0.9,6.3-2.8,8.2
				c-1.9,1.9-4.2,2.9-7.2,2.9c-3.3,0-6.3-1.3-9.1-3.9L57.8,173.5z"/>
        <path  d="M312.4,238.2l0-29H364c3,0,5.4-2.3,5.4-5l0-6.8c0-2.8-2.4-5-5.4-5h-51.6l0-28.4h67.8c3,0,5.4-2.3,5.4-5
				l0.1-11.9h-90.1v108h90.3v-11.9c0-2.8-2.4-5-5.4-5H312.4z"/>
        <path d="M402.4,255.1v-11.9c0-2.8,2.4-5,5.4-5h65.5c5.4,0,9.5-1.3,12.4-3.8c2.9-2.5,5.1-6.4,5.1-10.7
				c0-4.7-2.2-9.4-5.1-11.6c-2.9-2.2-7-3.4-12.4-3.4h-39.6c-5.4,0-10.2-0.7-14.6-2.3c-4.4-1.5-8-3.6-11-6.3c-3-2.7-5.3-5.9-6.9-9.6
				c-1.6-3.7-2.4-8.9-2.4-13.3c0-4.3,0.8-8.3,2.3-12c1.5-3.7,3.8-6.9,6.8-9.5c3-2.6,6.7-4.7,11.1-6.2c4.4-1.5,9.4-2.3,15.1-2.3h62.2
				v11.8c0,2.8-2.4,5-5.4,5H431c-4.7,0-8.3,1.2-10.8,3.5c-2.5,2.3-4.5,6.6-4.5,10.6c0,4.1,2.1,8.1,4.6,10.4
				c2.6,2.3,6.1,3.4,10.5,3.4h41.4c11.8,0,20.6,2.6,26.6,7.7c6,5.1,9,12.8,9,23.2c0,4.5-0.7,9.7-2.2,13.5c-1.4,3.8-3.6,7.1-6.5,9.9
				c-2.9,2.8-6.6,5-11.1,6.6c-4.5,1.6-9.7,2.4-15.7,2.4H402.4z"/>
        <path d="M553.5,250V164h-36.8c-3,0-5.4-2.3-5.4-5v-11.9h101.5v11.9c0,2.8-2.4,5-5.4,5h-36.9v91.1H559
					C556,255.1,553.5,252.8,553.5,250z"/>
    </g>
    <g fill="#ffffff">
        <path d="M813.4,254c-2.9,0-5.5-0.8-7.6-2.4c-2.2-1.6-3.3-4-3.3-7.1c0-2.7,1.3-5.4,3.9-7.9l73.3-73.9H808
					c-2.5,0-4.5-2.1-4.5-4.8l0-10.8h91.3c2.8,0,5.3,0.8,7.6,2.4c2.2,1.6,3.3,4,3.3,7.1c0,2.7-1.3,5.4-3.9,7.9l-76.5,73.9h73.9
					c2.5,0,4.5,2.1,4.5,4.8V254H813.4z"/>
        <path d="M686.8,255.1l44.4-84.8l44.4,84.8h18.8L741.6,153c-1.2-1.8-2.6-3.3-4.1-4.3c-1.6-1.1-4-1.6-6.2-1.6h0l0,0
				c-2.2,0-4.7,0.6-6.3,1.6c-1.6,1-3,2.5-4.1,4.3l-52.8,102.1H686.8z"/>
    </g>
</svg>
